# File created by Blade
# Date/Time:  Thu Jan 22 19:29:39 2015
# Frame Rate: 120.000 fps
#------------------------------------------------------
:FULLY-SPECIFIED
:DEGREES
1176
root 2.204860 34.018920 1.474494 92.381433 -16.744017 -26.943272
RightUpLeg -4.545504 17.365547 -27.517192
RightLeg 150.309932 -0.000000 -0.000000
RightFoot 35.693532 5.387095 5.002924
RightToeBase -19.380490 -0.000000 0.000000
LeftUpLeg -91.448500 15.491676 7.828313
LeftLeg 27.980380 -0.000000 -0.000000
LeftFoot -24.531394 13.540648 -9.023693
LeftToeBase 6.347120 -0.000000 -0.000000
Spine -18.493247 -5.006053 0.319475
RightShoulder -18.689416 -35.414100 -15.340446
RightArm 7.643624 -63.784613 62.710480
RightForeArm 36.716005 0.000000 42.442324
RightHand -10.667141 -0.000000 13.953137
RightHandThumb1 -24.326973 -0.000000 -32.862282
LeftShoulder -34.507381 7.288424 33.885136
LeftArm 157.907479 -43.682958 -120.074355
LeftForeArm -13.733497 0.000000 60.525609
LeftHand -15.128448 -0.000000 10.753390
LeftHandThumb1 -26.253704 0.000000 33.147579
Head -14.649439 29.653862 -14.311171
1177
root 2.209506 34.022318 1.472763 92.412269 -16.775435 -26.969255
RightUpLeg -4.620771 17.415604 -27.571483
RightLeg 150.324420 -0.000000 -0.000000
RightFoot 35.712649 5.414544 4.958828
RightToeBase -19.495772 -0.000000 0.000000
LeftUpLeg -91.461310 15.523910 7.777983
LeftLeg 27.955564 -0.000000 -0.000000
LeftFoot -24.511527 13.490462 -9.039737
LeftToeBase 6.314521 -0.000000 -0.000000
Spine -18.497301 -4.975809 0.294056
RightShoulder -18.724207 -35.401908 -15.336089
RightArm 7.856221 -63.882624 62.534131
RightForeArm 36.790260 -0.000000 42.365827
RightHand -10.636032 -0.000000 13.961430
RightHandThumb1 -24.326973 -0.000000 -32.862282
LeftShoulder -34.519175 7.270402 33.872429
LeftArm 157.892776 -43.673952 -120.091094
LeftForeArm -13.746542 -0.000000 60.577313
LeftHand -15.156833 0.000000 10.750888
LeftHandThumb1 -26.253704 0.000000 33.147579
Head -14.692759 29.649584 -14.302083
1178
root 2.213250 34.024200 1.470667 92.436023 -16.796831 -26.990680
RightUpLeg -4.674112 17.476741 -27.603571
RightLeg 150.327613 -0.000000 -0.000000
RightFoot 35.718170 5.427612 4.989845
RightToeBase -19.552352 -0.000000 0.000000
LeftUpLeg -91.477625 15.554386 7.725389
LeftLeg 27.942291 -0.000000 -0.000000
LeftFoot -24.501710 13.399428 -9.049841
LeftToeBase 6.312651 -0.000000 -0.000000
Spine -18.505052 -4.934076 0.266766
RightShoulder -18.714098 -35.392789 -15.319037
RightArm 7.863172 -63.894630 62.526825
RightForeArm 36.805328 -0.000000 42.337231
RightHand -10.647026 -0.000000 13.937432
RightHandThumb1 -24.326973 -0.000000 -32.862282
LeftShoulder -34.514533 7.246135 33.881018
LeftArm 157.857877 -43.650737 -120.093209
LeftForeArm -13.759032 0.000000 60.607977
LeftHand -15.150141 0.000000 10.727491
LeftHandThumb1 -26.253704 0.000000 33.147579
Head -14.726560 29.697925 -14.290000
1179
root 2.215737 34.025402 1.468387 92.444146 -16.807410 -26.999692
RightUpLeg -4.696041 17.518054 -27.600862
RightLeg 150.323245 -0.000000 -0.000000
RightFoot 35.724833 5.394560 5.036877
RightToeBase -19.770606 -0.000000 0.000000
LeftUpLeg -91.490070 15.575166 7.679308
LeftLeg 27.933404 -0.000000 -0.000000
LeftFoot -24.492064 13.306954 -9.093427
LeftToeBase 6.274431 -0.000000 -0.000000
Spine -18.498522 -4.915830 0.259267
RightShoulder -18.695022 -35.365455 -15.323878
RightArm 7.824224 -63.890259 62.568710
RightForeArm 36.778655 -0.000000 42.296935
RightHand -10.630568 -0.000000 13.954343
RightHandThumb1 -24.326973 -0.000000 -32.862282
LeftShoulder -34.524414 7.230530 33.873552
LeftArm 157.838105 -43.623274 -120.099290
LeftForeArm -13.744096 -0.000000 60.617589
LeftHand -15.167062 -0.000000 10.748601
LeftHandThumb1 -26.253704 0.000000 33.147579
Head -14.716138 29.653072 -14.230477
1180
root 2.218483 34.026392 1.465607 92.449695 -16.813066 -26.999758
RightUpLeg -4.712054 17.553818 -27.591590
RightLeg 150.314795 -0.000000 -0.000000
RightFoot 35.695967 5.383035 4.999086
RightToeBase -19.699928 -0.000000 0.000000
LeftUpLeg -91.516411 15.590045 7.627593
LeftLeg 27.941614 -0.000000 -0.000000
LeftFoot -24.487930 13.227109 -9.133289
LeftToeBase 6.276293 -0.000000 -0.000000
Spine -18.493155 -4.901501 0.259666
RightShoulder -18.683369 -35.365877 -15.330728
RightArm 7.796699 -63.839034 62.612625
RightForeArm 36.696089 -0.000000 42.260909
RightHand -10.614931 -0.000000 13.961869
RightHandThumb1 -24.326973 -0.000000 -32.862282
LeftShoulder -34.548788 7.219224 33.845169
LeftArm 157.833715 -43.591159 -120.093701
LeftForeArm -13.770541 -0.000000 60.585264
LeftHand -15.140416 -0.000000 10.748298
LeftHandThumb1 -26.253704 0.000000 33.147579
Head -14.714394 29.656379 -14.206007
1181
root 2.218848 34.024965 1.461945 92.443642 -16.809936 -26.984700
RightUpLeg -4.688988 17.572950 -27.550732
RightLeg 150.292676 -0.000000 -0.000000
RightFoot 35.686953 5.366843 5.012306
RightToeBase -19.675042 -0.000000 0.000000
LeftUpLeg -91.561436 15.597542 7.527842
LeftLeg 27.968292 -0.000000 -0.000000
LeftFoot -24.511871 13.101987 -9.207964
LeftToeBase 6.266994 -0.000000 -0.000000
Spine -18.494752 -4.908069 0.269678
RightShoulder -18.685877 -35.389790 -15.342542
RightArm 7.838658 -63.805178 62.588259
RightForeArm 36.649235 0.000000 42.236026
RightHand -10.600226 -0.000000 13.976589
RightHandThumb1 -24.326973 -0.000000 -32.862282
LeftShoulder -34.554891 7.246940 33.828165
LeftArm 157.854756 -43.558088 -120.129805
LeftForeArm -13.749848 -0.000000 60.560616
LeftHand -15.163933 -0.000000 10.784499
LeftHandThumb1 -26.253704 0.000000 33.147579
Head -14.683875 29.665630 -14.174624
1182
root 2.218271 34.023444 1.459207 92.418792 -16.787107 -26.927224
RightUpLeg -4.617710 17.581367 -27.437766
RightLeg 150.262163 -0.000000 -0.000000
RightFoot 35.691304 5.316003 5.176261
RightToeBase -19.723563 -0.000000 0.000000
LeftUpLeg -91.607916 15.572027 7.468980
LeftLeg 28.001765 -0.000000 -0.000000
LeftFoot -24.479839 13.009431 -9.175939
LeftToeBase 6.251556 -0.000000 -0.000000
Spine -18.486907 -4.959907 0.310330
RightShoulder -18.676602 -35.374110 -15.352490
RightArm 7.756292 -63.742557 62.649046
RightForeArm 36.585434 0.000000 42.238564
RightHand -10.617364 0.000000 13.997553
RightHandThumb1 -24.326973 -0.000000 -32.862282
LeftShoulder -34.562349 7.228097 33.841534
LeftArm 157.805712 -43.557451 -120.131575
LeftForeArm -13.719614 0.000000 60.539477
LeftHand -15.171905 0.000000 10.758051
LeftHandThumb1 -26.253704 0.000000 33.147579
Head -14.666957 29.672198 -14.174099
